<svg data-name="Layer 1" viewBox="0 0 256 256" xmlns="http://www.w3.org/2000/svg"><path d="M98.26 39.12V52.4a6.69 6.69 0 0 0 6.74 6.68h52.1a6.69 6.69 0 0 0 6.69-6.68V39.12a6.7 6.7 0 0 0-6.69-6.69 10.67 10.67 0 0 1-10.68-10.68v-3.07a6.69 6.69 0 0 0-6.74-6.68h-17.36a6.69 6.69 0 0 0-6.69 6.68v3.07A10.69 10.69 0 0 1 105 32.43a6.69 6.69 0 0 0-6.74 6.69Z" fill="#2980b9" class="fill-40bdff"></path><path d="M157.05 32.43a10.67 10.67 0 0 1-10.68-10.68v-3.07a6.69 6.69 0 0 0-6.69-6.68h-8a6.69 6.69 0 0 1 6.69 6.68v3.07a10.67 10.67 0 0 0 10.68 10.68 6.7 6.7 0 0 1 6.69 6.69V52.4a6.69 6.69 0 0 1-6.69 6.68h8a6.69 6.69 0 0 0 6.69-6.68V39.12a6.7 6.7 0 0 0-6.69-6.69Z" fill="#236d9d" class="fill-2197f7"></path><path d="M63.31 244h134.38a8 8 0 0 0 8-8V55.76a8 8 0 0 0-8-8h-32.95v4.64a10.7 10.7 0 0 1-10.69 10.68H102A10.7 10.7 0 0 1 91.26 52.4v-4.64h-28a8 8 0 0 0-8 8V236a8 8 0 0 0 8.05 8ZM94.72 74.51a2 2 0 0 1 0 2.83l-20 20a2 2 0 0 1-2.83 0l-10-10a2 2 0 0 1 2.83-2.83l8.59 8.59L91.9 74.51a2 2 0 0 1 2.82 0Zm-30 40 8.59 8.59 18.59-18.59a2 2 0 0 1 2.83 2.83l-20 20a2 2 0 0 1-2.83 0l-10-10a2 2 0 0 1 2.83-2.83Zm0 30 8.59 8.59 18.59-18.59a2 2 0 0 1 2.83 2.83l-20 20a2 2 0 0 1-2.83 0l-10-10a2 2 0 0 1 2.83-2.83Zm0 30 8.59 8.59 18.59-18.59a2 2 0 0 1 2.83 2.83l-20 20a2 2 0 0 1-2.83 0l-10-10a2 2 0 0 1 2.83-2.83Zm0 29.92 8.59 8.57 18.59-18.57a2 2 0 0 1 2.83 2.83l-20 20a2 2 0 0 1-2.83 0l-10-10a2 2 0 0 1 2.83-2.83Zm128-116.51h-84.46a2 2 0 0 1 0-4h84.43a2 2 0 0 1 0 4Zm-84.43 26h84.43a2 2 0 0 1 0 4h-84.46a2 2 0 0 1 0-4Zm0 30h84.43a2 2 0 0 1 0 4h-84.46a2 2 0 1 1 0-4Zm0 30h84.43a2 2 0 0 1 0 4h-84.46a2 2 0 1 1 0-4Zm0 29.92h84.43a2 2 0 0 1 0 4h-84.46a2 2 0 1 1 0-4Z" fill="#effafe" class="fill-effafe"></path><path d="M197.69 47.76h-5a8 8 0 0 1 8 8V236a8 8 0 0 1-8 8h5a8 8 0 0 0 8-8V55.76a8 8 0 0 0-8-8Z" fill="#e4ebed" class="fill-e4ebed"></path><path d="M136.68 7.5h-17.36a11.2 11.2 0 0 0-11.19 11.18v3.07a6.19 6.19 0 0 1-6.13 6.18 11.18 11.18 0 0 0-11.24 11.19v4.14H58.31a12.51 12.51 0 0 0-12.5 12.5V236a12.51 12.51 0 0 0 12.5 12.5h139.38a12.51 12.51 0 0 0 12.5-12.5V55.76a12.51 12.51 0 0 0-12.5-12.5h-32.45v-4.14a11.2 11.2 0 0 0-11.19-11.19 6.17 6.17 0 0 1-6.18-6.18v-3.07A11.2 11.2 0 0 0 136.68 7.5Zm28.56 44.9v-4.14h32.45a7.51 7.51 0 0 1 7.5 7.5V236a7.51 7.51 0 0 1-7.5 7.5H58.31a7.51 7.51 0 0 1-7.5-7.5V55.76a7.51 7.51 0 0 1 7.5-7.5h32.45v4.14A11.2 11.2 0 0 0 102 63.58h52.1a11.2 11.2 0 0 0 11.14-11.18Zm-11.19-19.47a6.2 6.2 0 0 1 6.19 6.19V52.4a6.19 6.19 0 0 1-6.19 6.18H102a6.19 6.19 0 0 1-6.19-6.18V39.12a6.19 6.19 0 0 1 6.19-6.19 11.19 11.19 0 0 0 11.18-11.18v-3.07a6.19 6.19 0 0 1 6.19-6.18h17.36a6.19 6.19 0 0 1 6.19 6.18v3.07a11.17 11.17 0 0 0 11.18 11.18Z" fill="#263238" class="fill-263238"></path><path d="M91.54 74.15 73.31 92.38l-8.23-8.23a2.5 2.5 0 0 0-3.54 3.54l10 10a2.5 2.5 0 0 0 3.54 0l20-20a2.5 2.5 0 0 0-3.54-3.54ZM105.76 85.92a2.5 2.5 0 0 0 2.5 2.5h84.43a2.5 2.5 0 0 0 0-5h-84.43a2.5 2.5 0 0 0-2.5 2.5ZM91.54 104.15l-18.23 18.23-8.23-8.23a2.5 2.5 0 1 0-3.54 3.54l10 10a2.5 2.5 0 0 0 3.54 0l20-20a2.5 2.5 0 1 0-3.54-3.54ZM192.69 113.42h-84.43a2.5 2.5 0 0 0 0 5h84.43a2.5 2.5 0 0 0 0-5ZM91.54 134.15l-18.23 18.23-8.23-8.23a2.5 2.5 0 0 0-3.54 3.54l10 10a2.5 2.5 0 0 0 3.54 0l20-20a2.5 2.5 0 0 0-3.54-3.54ZM192.69 143.42h-84.43a2.5 2.5 0 1 0 0 5h84.43a2.5 2.5 0 0 0 0-5ZM91.54 164.15l-18.23 18.23-8.23-8.23a2.5 2.5 0 0 0-3.54 3.54l10 10a2.5 2.5 0 0 0 3.54 0l20-20a2.5 2.5 0 0 0-3.54-3.54ZM192.69 173.42h-84.43a2.5 2.5 0 1 0 0 5h84.43a2.5 2.5 0 0 0 0-5ZM91.54 194.07 73.31 212.3l-8.23-8.23a2.5 2.5 0 0 0-3.54 3.54l10 10a2.5 2.5 0 0 0 3.54 0l20-20a2.5 2.5 0 1 0-3.54-3.54ZM192.69 203.34h-84.43a2.5 2.5 0 1 0 0 5h84.43a2.5 2.5 0 0 0 0-5Z" fill="#263238" class="fill-263238"></path><path d="M235 200.84h-4v-4a1 1 0 0 0-2 0v4h-4a1 1 0 0 0 0 2h4v4a1 1 0 0 0 2 0v-4h4a1 1 0 0 0 0-2ZM182.75 34.68a6 6 0 1 1 6-6 6 6 0 0 1-6 6Zm0-10a4 4 0 1 0 4 4 4 4 0 0 0-4-4Z" fill="#2980b9" class="fill-40bdff"></path><path d="M230 89.42a6 6 0 1 1 6-6 6 6 0 0 1-6 6Zm0-10a4 4 0 1 0 4 4 4 4 0 0 0-4-4Z" fill="#ffdd00" class="fill-ffdd00"></path><path d="M39 154.35h-2.59l1.83-1.83a1 1 0 0 0-1.41-1.41L35 152.94v-2.59a1 1 0 0 0-2 0v2.59l-1.83-1.83a1 1 0 0 0-1.41 1.41l1.83 1.83H29a1 1 0 0 0 0 2h2.59l-1.83 1.83a1 1 0 0 0 1.41 1.41l1.83-1.82v2.59a1 1 0 0 0 2 0v-2.59l1.83 1.83a1 1 0 0 0 1.41-1.41l-1.83-1.83H39a1 1 0 0 0 0-2Z" fill="#2980b9" class="fill-40bdff"></path></svg>